<?xml version="1.0" encoding="UTF-8"?>
<svg version="1.1" xmlns="http://www.w3.org/2000/svg" width="1592" height="632">
<path d="M0 0 C0.72050537 -0.01409912 1.44101074 -0.02819824 2.18334961 -0.04272461 C6.81824657 0.00111076 10.01266582 0.92270331 13.9375 3.375 C24.02062135 15.97890169 20.80450602 35.98648219 19.21484375 51.03515625 C17.57358186 64.50050644 15.16839517 77.48974737 10.9375 90.375 C10.65970703 91.24656738 10.38191406 92.11813477 10.09570312 93.01611328 C7.11925946 102.35413539 4.04008238 111.46659154 -0.0625 120.375 C-6.35679077 134.33130562 -12.50702706 148.44201365 -16.0625 163.375 C-16.28679687 164.25929688 -16.51109375 165.14359375 -16.7421875 166.0546875 C-19.23403814 177.83124188 -19.72363774 192.59034064 -17.0625 204.375 C-16.0865409 201.4471227 -15.96692249 199.48845116 -15.875 196.4375 C-15.42010145 190.4210998 -13.98095723 184.93730226 -12.25 179.1875 C-11.87742065 177.94141968 -11.87742065 177.94141968 -11.49731445 176.67016602 C-9.74387158 171.0380472 -7.57375173 165.70925825 -5.0625 160.375 C-4.55847656 159.29992187 -4.05445313 158.22484375 -3.53515625 157.1171875 C-0.77287873 151.5008116 1.96428455 146.23115222 5.9375 141.375 C6.5975 141.375 7.2575 141.375 7.9375 141.375 C8.246875 140.75625 8.55625 140.1375 8.875 139.5 C9.5625 138.125 10.25 136.75 10.9375 135.375 C11.5975 135.375 12.2575 135.375 12.9375 135.375 C12.9375 134.715 12.9375 134.055 12.9375 133.375 C13.5975 133.375 14.2575 133.375 14.9375 133.375 C15.2675 132.385 15.5975 131.395 15.9375 130.375 C34.08248531 113.89330501 57.4216058 103.36034822 80.9375 97.375 C81.63584961 97.19420898 82.33419922 97.01341797 83.05371094 96.82714844 C104.06882373 91.66824081 129.9861861 92.33795908 150.9375 97.375 C151.64680664 97.54128906 152.35611328 97.70757812 153.08691406 97.87890625 C177.40760036 103.78676527 199.07094663 115.8134267 212.3984375 137.5390625 C221.42275655 154.16763008 219.75255838 171.15582333 214.78515625 188.75390625 C213.73499723 192.00117216 212.4185379 195.04652158 210.96875 198.1328125 C209.88216202 200.49531819 208.93694206 202.88702902 208 205.3125 C206.27238142 209.6964175 204.25580653 213.86998264 202.0859375 218.05078125 C200.89922211 220.37526562 200.89922211 220.37526562 199.94140625 222.87109375 C196.78866272 230.73455134 192.06323519 237.81818744 187.4375 244.875 C183.27531432 251.22934418 179.44832672 257.63421271 175.9375 264.375 C175.27398311 265.60516505 174.60847876 266.83425939 173.94140625 268.0625 C161.92339656 288.95577749 161.92339656 288.95577749 160.63671875 312.10546875 C163.34985837 318.88117606 163.34985837 318.88117606 168.9375 323.375 C173.13733343 325.13822121 176.01303642 325.58584257 180.5 324.5625 C187.27144883 321.10704671 192.52753096 312.34053792 195 305.38671875 C200.17368822 287.04168262 204.00367599 268.79999835 198.49609375 250.07421875 C197.84193053 246.91319228 197.80333356 245.40800757 198.9375 242.375 C201.2284842 240.85653459 203.24861734 239.75116922 205.7265625 238.6328125 C206.42204193 238.30135223 207.11752136 237.96989197 207.83407593 237.62838745 C210.06914037 236.56816418 212.31516879 235.53392675 214.5625 234.5 C216.021625 233.81287653 217.47996794 233.12408975 218.9375 232.43359375 C221.83041591 231.06679862 224.72912404 229.71370962 227.63378906 228.37207031 C230.52092613 227.03777002 233.39658526 225.68243032 236.26464844 224.30761719 C236.95062103 223.98082977 237.63659363 223.65404236 238.34335327 223.31735229 C239.6391071 222.69947143 240.93287265 222.07739751 242.22427368 221.45046997 C245.00836039 220.13011786 246.81090359 219.375 249.9375 219.375 C251.69388529 224.86554898 252.52701905 230.14298247 253.0625 235.875 C253.1452417 236.76010254 253.2279834 237.64520508 253.31323242 238.55712891 C254.33509304 250.17462341 254.1333871 261.13960488 252.625 272.6875 C252.50745361 273.59483887 252.38990723 274.50217773 252.26879883 275.43701172 C250.17113249 290.13005863 244.16099287 302.54150924 236.9375 315.375 C236.2775 315.375 235.6175 315.375 234.9375 315.375 C234.669375 316.179375 234.40125 316.98375 234.125 317.8125 C233.733125 318.658125 233.34125 319.50375 232.9375 320.375 C231.9475 320.705 230.9575 321.035 229.9375 321.375 C229.24794731 322.69664266 228.58505297 324.03227986 227.9375 325.375 C226.65566519 326.83842808 225.3181979 328.25445429 223.9375 329.625 C223.23625 330.33140625 222.535 331.0378125 221.8125 331.765625 C219.9375 333.375 219.9375 333.375 217.9375 333.375 C217.9375 334.035 217.9375 334.695 217.9375 335.375 C215.97417448 337.02542051 214.02618248 338.52153499 211.9375 340 C210.99777344 340.6655188 210.99777344 340.6655188 210.0390625 341.34448242 C186.05422371 357.8784974 157.33295561 364.87673898 128.50390625 360.12109375 C111.71362246 356.60855902 97.39878287 349.41175018 84.9375 337.375 C84.9375 336.715 84.9375 336.055 84.9375 335.375 C84.2775 335.375 83.6175 335.375 82.9375 335.375 C66.94723322 317.5935628 60.70260381 295.36549371 60.625 271.875 C60.61690308 270.37163086 60.61690308 270.37163086 60.60864258 268.83789062 C60.65887469 263.59278462 61.09845067 258.80873399 62.38330078 253.72509766 C63.02217857 251.01591809 63.43764485 248.30643914 63.85546875 245.5546875 C64.85972411 239.38052163 66.45012701 233.48462644 68.25 227.5 C68.55905273 226.45424805 68.86810547 225.40849609 69.18652344 224.33105469 C70.87044538 218.6999499 72.6657306 213.14338577 74.6875 207.625 C79.29580833 194.97116326 83.66801306 179.23311711 78.25 166.0625 C76.33236765 162.55715054 73.86623249 160.05967145 70.9375 157.375 C70.9375 156.715 70.9375 156.055 70.9375 155.375 C60.49563154 151.41510406 50.41896506 150.64707019 40.05859375 155.20703125 C37.86396859 156.34809695 37.86396859 156.34809695 35.78515625 158.01171875 C33.9375 159.375 33.9375 159.375 31.9375 159.375 C31.6075 160.365 31.2775 161.355 30.9375 162.375 C29.27083333 164.04166667 27.60416667 165.70833333 25.9375 167.375 C15.60126464 180.03688832 13.50108204 194.50245182 13.5 210.3125 C13.49793549 211.06089142 13.49587097 211.80928284 13.4937439 212.58035278 C13.50065767 226.60803349 15.34486719 239.79252218 18.9375 253.375 C19.19208984 254.33881592 19.44667969 255.30263184 19.70898438 256.2956543 C22.38958541 266.26980798 25.60035037 275.8952291 29.66796875 285.39453125 C30.48761737 287.31881402 31.28374397 289.25336628 32.05078125 291.19921875 C35.38483323 299.59736342 39.55463458 307.46527292 43.86376953 315.39208984 C44.8365361 317.18854507 45.792319 318.99417119 46.74609375 320.80078125 C47.26300781 321.77402344 47.77992188 322.74726563 48.3125 323.75 C48.75335937 324.58273437 49.19421875 325.41546875 49.6484375 326.2734375 C51.27597401 328.9268152 53.09392871 330.7673927 55.61328125 332.58203125 C57.74050941 335.46226053 57.2498644 338.63353145 57.125 342.0625 C57.11146484 342.76439453 57.09792969 343.46628906 57.08398438 344.18945312 C57.04870182 345.91829829 56.99489583 347.64674765 56.9375 349.375 C40.05462089 353.74571682 23.23886403 357.16184182 5.9375 359.375 C5.04579102 359.49359375 4.15408203 359.6121875 3.23535156 359.734375 C-23.71660475 363.17374352 -53.16637507 363.34928513 -80.0625 359.375 C-80.96355469 359.25141113 -81.86460937 359.12782227 -82.79296875 359.00048828 C-99.21395959 356.71517832 -115.09393278 352.78345454 -131.0625 348.375 C-132.44253086 335.13692619 -132.44253086 335.13692619 -129.19921875 330.99609375 C-126.88871831 329.30576037 -124.51444736 327.8487093 -122.0625 326.375 C-120.68223133 324.7469908 -119.32688322 323.09456118 -118.0625 321.375 C-117.4025 321.045 -116.7425 320.715 -116.0625 320.375 C-115.15020136 318.08840532 -114.33125478 315.83421905 -113.5625 313.5 C-112.34428268 309.84534804 -111.22236444 306.61479665 -109.0625 303.375 C-108.34018673 301.20523867 -107.68115975 299.01405872 -107.0625 296.8125 C-106.7325 295.65621094 -106.4025 294.49992187 -106.0625 293.30859375 C-103.94964382 285.31680064 -102.64959773 277.17744156 -101.5 269 C-101.36996582 268.08750488 -101.23993164 267.17500977 -101.10595703 266.23486328 C-100.28607732 260.35157355 -99.63449688 254.48637724 -99.2734375 248.5546875 C-99.0625 246.375 -99.0625 246.375 -98.0625 243.375 C-97.96106828 240.71653528 -97.91566153 238.08422051 -97.91723633 235.42553711 C-97.91387772 234.61520523 -97.9105191 233.80487335 -97.90705872 232.96998596 C-97.89753516 230.28075638 -97.89560371 227.59158917 -97.89453125 224.90234375 C-97.8913154 223.02161128 -97.88795108 221.14087905 -97.88444519 219.26014709 C-97.87844745 215.30485456 -97.87660553 211.34958387 -97.87719727 207.39428711 C-97.87729796 202.37511569 -97.86374608 197.35608872 -97.84642506 192.33695126 C-97.83518153 188.44250372 -97.83328194 184.54808948 -97.83380699 180.6536274 C-97.83264151 178.80684482 -97.82830224 176.96006096 -97.82047462 175.1132946 C-97.77923338 164.36129374 -98.21931406 153.86414719 -99.57817078 143.19270325 C-99.99910639 139.87469728 -100.34200593 136.56644888 -100.625 133.234375 C-100.69976562 132.37199219 -100.77453125 131.50960937 -100.8515625 130.62109375 C-100.99612106 128.91048411 -101.13653833 127.1995209 -101.2734375 125.48828125 C-101.68698905 120.8037404 -102.4697863 116.82941881 -104.0625 112.375 C-104.3359375 110.015625 -104.3359375 110.015625 -104.4375 107.625 C-105.29399714 96.45994801 -107.99176819 84.80983365 -112.0625 74.375 C-112.40925781 73.42367187 -112.75601562 72.47234375 -113.11328125 71.4921875 C-116.29624854 63.21854613 -120.37417991 56.7425966 -126.9375 50.75 C-129.82323695 47.52476458 -130.20884259 45.69210631 -130.0625 41.375 C-128.74640341 38.43313704 -127.19608475 35.79809773 -125.0625 33.375 C-124.4025 33.375 -123.7425 33.375 -123.0625 33.375 C-123.0625 32.715 -123.0625 32.055 -123.0625 31.375 C-112.327042 25.68217301 -101.6457179 21.043019 -90.0625 17.375 C-89.21816406 17.10333008 -88.37382812 16.83166016 -87.50390625 16.55175781 C-59.60483355 7.67385986 -29.37590956 0.40804072 0 0 Z " fill="#00A99D" transform="translate(571.0625,100.625)"/>
<path d="M0 0 C1.04291199 0.00054382 2.08582397 0.00108765 3.16033936 0.00164795 C19.17044202 0.04004737 34.60581351 0.65781991 50.25 4.375 C51.18328125 4.59462402 52.1165625 4.81424805 53.078125 5.04052734 C74.0555726 10.15812635 91.5614665 18.56281784 108.25 32.375 C109.04019531 32.94605469 109.83039063 33.51710937 110.64453125 34.10546875 C114.17894191 37.18416829 116.79249675 40.73710372 119.5625 44.5 C120.11228516 45.22832031 120.66207031 45.95664063 121.22851562 46.70703125 C125.25 52.1123059 125.25 52.1123059 125.25 54.375 C125.91 54.375 126.57 54.375 127.25 54.375 C132.10504356 63.19359028 136.63434785 71.95897301 140.25 81.375 C140.49008789 81.97417236 140.73017578 82.57334473 140.97753906 83.19067383 C142.90644924 88.11303424 144.23692143 93.02972791 145.375 98.1875 C146.62524641 103.8309577 146.62524641 103.8309577 148.25 109.375 C148.51734506 111.84213992 148.74301971 114.29639596 148.93359375 116.76953125 C148.99334381 117.50541473 149.05309387 118.24129822 149.11465454 118.9994812 C149.24241617 120.5771127 149.36854246 122.15487733 149.49319458 123.73275757 C149.68809158 126.19497369 149.88802722 128.65673015 150.08959961 131.1184082 C150.35616928 134.37474198 150.62168285 137.63115697 150.88574219 140.88769531 C151.35039692 146.61360627 151.81820975 152.33905855 152.3125 158.0625 C152.41292603 159.31220581 152.41292603 159.31220581 152.51538086 160.5871582 C152.92764458 165.28521647 153.70008134 169.76032254 154.78393555 174.34985352 C155.36705013 176.88360703 155.75316455 179.42750574 156.125 182 C157.6055628 191.08156236 159.31807054 200.52044567 164.25 208.375 C164.25 209.035 164.25 209.695 164.25 210.375 C164.91 210.375 165.57 210.375 166.25 210.375 C166.25 211.035 166.25 211.695 166.25 212.375 C171.34295961 214.14194517 174.88846654 214.8372364 180.25 213.375 C186.22392055 209.6987412 187.45504289 206.05622923 189.25 199.375 C193.87 199.375 198.49 199.375 203.25 199.375 C201.1840311 210.22133672 196.96631523 219.52468313 190.25 228.375 C189.59 228.375 188.93 228.375 188.25 228.375 C188.0334375 228.92671875 187.816875 229.4784375 187.59375 230.046875 C185.78504366 233.18056389 183.43448326 235.20896506 180.75 237.625 C180.25113281 238.08390625 179.75226563 238.5428125 179.23828125 239.015625 C175.50897507 242.375 175.50897507 242.375 173.25 242.375 C173.25 243.035 173.25 243.695 173.25 244.375 C147.7853629 263.12218236 115.13783842 270.42373541 83.8984375 265.69140625 C73.78324313 263.78684115 64.83999857 260.10166571 56.25 254.375 C56.25 253.715 56.25 253.055 56.25 252.375 C55.66089844 252.12492188 55.07179688 251.87484375 54.46484375 251.6171875 C46.64090719 247.22915959 43.04932091 237.40601055 40.25 229.375 C39.88390625 228.37726563 39.5178125 227.37953125 39.140625 226.3515625 C37.57992804 220.67164897 37.82471724 214.71980407 37.8125 208.875 C37.80863281 207.60229248 37.80476562 206.32958496 37.80078125 205.01831055 C37.93656266 193.684099 39.81791315 183.16102941 42.79101562 172.25317383 C43.32913073 170.37343595 43.32913073 170.37343595 43.25 168.375 C40.41827224 173.92518641 37.8429779 179.53081208 35.375 185.25 C32.76038822 191.23149782 29.98437014 196.89829854 26.48046875 202.421875 C25.12408152 204.50386229 25.12408152 204.50386229 23.75 207.375 C18.23568019 218.40363962 18.23568019 218.40363962 14.625 221.98828125 C12.98183083 223.44048368 12.98183083 223.44048368 12.25 226.375 C11.59 226.375 10.93 226.375 10.25 226.375 C9.981875 227.179375 9.71375 227.98375 9.4375 228.8125 C9.045625 229.658125 8.65375 230.50375 8.25 231.375 C7.26 231.705 6.27 232.035 5.25 232.375 C4.816875 233.24125 4.816875 233.24125 4.375 234.125 C2.85616932 237.16266137 0.70156267 239.0374635 -1.75 241.375 C-2.8946875 242.5815625 -2.8946875 242.5815625 -4.0625 243.8125 C-21.42485039 260.36729921 -43.90254443 266.90576801 -67.4831543 266.72851562 C-87.98872669 266.23376679 -114.56747479 261.20028932 -129.75 246.375 C-129.75 245.715 -129.75 245.055 -129.75 244.375 C-130.3275 244.14683594 -130.905 243.91867187 -131.5 243.68359375 C-139.3287993 239.13038582 -143.52067015 228.75258691 -145.75 220.375 C-150.4307601 201.59815777 -148.65815233 180.68400669 -139.25390625 163.66796875 C-135.19581052 156.96695617 -130.4752996 150.75048496 -124.75 145.375 C-124.09 145.375 -123.43 145.375 -122.75 145.375 C-122.75 144.715 -122.75 144.055 -122.75 143.375 C-102.59183133 124.89290378 -73.52568971 117.86056014 -47.50097656 112.89990234 C-26.60872144 108.91353844 -4.75572297 103.69288261 10.25 87.375 C11.47870248 85.24916436 11.47870248 85.24916436 12.25 83.375 C12.91 83.375 13.57 83.375 14.25 83.375 C14.53875 82.4675 14.8275 81.56 15.125 80.625 C16.25 77.375 16.25 77.375 17.25 75.46484375 C20.9673049 67.69625734 21.50004815 57.85705626 19 49.6875 C16.03392335 41.83692097 11.45148066 36.63628993 4.25 32.375 C-10.30276927 26.35903056 -25.18219238 24.83331712 -40.75 27.375 C-40.18152344 27.61734375 -39.61304688 27.8596875 -39.02734375 28.109375 C-34.06870319 30.26170646 -29.39382765 32.60846438 -24.75 35.375 C-24.75 36.035 -24.75 36.695 -24.75 37.375 C-24.17507813 37.57867187 -23.60015625 37.78234375 -23.0078125 37.9921875 C-17.57964343 41.31670627 -13.07580643 50.23970905 -11.25 56.3125 C-9.252653 67.53568789 -9.69407075 79.24274283 -16.1875 88.75 C-18.19625299 91.4832924 -20.17455386 94.15107715 -22.75 96.375 C-23.41 96.375 -24.07 96.375 -24.75 96.375 C-24.75 97.035 -24.75 97.695 -24.75 98.375 C-42.61501305 109.18314719 -61.219946 112.86914117 -81.75 108.375 C-93.27760788 104.98835814 -103.60093673 97.26117735 -109.5625 86.75 C-110.30626134 85.29905575 -111.03764284 83.84161768 -111.75 82.375 C-112.1625 81.570625 -112.575 80.76625 -113 79.9375 C-116.33716802 68.53550926 -113.84884992 57.84357624 -108.75 47.375 C-96.19457858 24.58560227 -75.15851809 12.87505149 -50.8125 5.81298828 C-33.84912275 1.07102858 -17.53203893 -0.03426728 0 0 Z M10.1875 120.75 C9.26839844 121.37648438 8.34929687 122.00296875 7.40234375 122.6484375 C6.69207031 123.21820313 5.98179687 123.78796875 5.25 124.375 C5.25 125.035 5.25 125.695 5.25 126.375 C4.65703125 126.6534375 4.0640625 126.931875 3.453125 127.21875 C-3.06409222 130.63913351 -7.45396528 136.25268984 -11.85546875 142.0078125 C-13.75 144.375 -13.75 144.375 -15.75390625 146.36328125 C-17.94890738 148.57546438 -19.70360231 150.89260327 -21.5 153.4375 C-22.11359375 154.29472656 -22.7271875 155.15195312 -23.359375 156.03515625 C-25.00545172 158.35117006 -25.00545172 158.35117006 -24.75 161.375 C-25.41 161.375 -26.07 161.375 -26.75 161.375 C-32.09377542 171.32829161 -36.50832588 181.98272579 -33.1328125 193.4765625 C-32.21700646 195.41067582 -32.21700646 195.41067582 -29.75 197.375 C-22.64197458 198.44120381 -16.94646032 196.58901884 -11.09375 192.53515625 C-5.40862631 188.29322382 -5.40862631 188.29322382 -1.75 182.375 C-1.09 182.375 -0.43 182.375 0.25 182.375 C9.77583306 171.34400284 15.1535122 158.31691783 16.4375 143.875 C16.51935547 143.08480469 16.60121094 142.29460937 16.68554688 141.48046875 C17.35390087 134.61720339 17.74635274 127.66242511 16.75 120.8125 C16.5025 119.1109375 16.5025 119.1109375 16.25 117.375 C14.09080487 117.375 11.86932914 119.5909335 10.1875 120.75 Z M46.25 156.375 C45.92 158.355 45.59 160.335 45.25 162.375 C45.91 161.715 46.57 161.055 47.25 160.375 C46.9314823 158.26679203 46.9314823 158.26679203 46.25 156.375 Z " fill="#00A99D" transform="translate(970.75,196.625)"/>
<path d="M0 0 C13.7814642 12.71313364 19.22138038 30.77609465 19.98828125 49.05078125 C19.93919349 53.62739643 19.04617498 57.914894 18.015625 62.359375 C17.7671582 63.51759766 17.7671582 63.51759766 17.51367188 64.69921875 C16.02862155 71.27827187 13.6418662 76.50412705 9.390625 81.796875 C8.81441406 82.52003906 8.23820312 83.24320312 7.64453125 83.98828125 C7.04511719 84.72949219 6.44570312 85.47070312 5.828125 86.234375 C5.22871094 87.04777344 4.62929687 87.86117187 4.01171875 88.69921875 C1.42886484 91.69791676 -1.45997587 93.9641453 -4.671875 96.234375 C-5.28554932 96.67007813 -5.89922363 97.10578125 -6.53149414 97.5546875 C-21.57399812 107.9151903 -39.26141453 111.10259238 -57.171875 108.484375 C-67.70326132 106.51144087 -75.70101024 102.76110686 -84.171875 96.234375 C-85.05875 95.595 -85.945625 94.955625 -86.859375 94.296875 C-90.27284394 91.25242973 -93.51311704 87.9658307 -96.171875 84.234375 C-96.171875 83.244375 -96.171875 82.254375 -96.171875 81.234375 C-96.831875 81.234375 -97.491875 81.234375 -98.171875 81.234375 C-105.51467387 69.02085288 -110.65954566 56.55081119 -107.2890625 42.26171875 C-104.76967694 32.60919928 -100.97274465 23.96448666 -96.171875 15.234375 C-96.955625 15.894375 -97.739375 16.554375 -98.546875 17.234375 C-101.171875 19.234375 -101.171875 19.234375 -103.171875 19.234375 C-103.419375 19.95625 -103.666875 20.678125 -103.921875 21.421875 C-105.171875 24.234375 -105.171875 24.234375 -107.0859375 26.4765625 C-109.45784931 29.61246088 -110.54509826 32.45288667 -111.796875 36.171875 C-112.20164062 37.35652344 -112.60640625 38.54117188 -113.0234375 39.76171875 C-113.59191406 41.48068359 -113.59191406 41.48068359 -114.171875 43.234375 C-114.53796875 44.29269531 -114.9040625 45.35101563 -115.28125 46.44140625 C-121.05391256 64.54427348 -117.00617718 85.5349414 -109.171875 102.234375 C-107.84725695 104.24015784 -106.51593081 106.24156498 -105.171875 108.234375 C-105.171875 108.894375 -105.171875 109.554375 -105.171875 110.234375 C-104.511875 110.234375 -103.851875 110.234375 -103.171875 110.234375 C-102.171875 111.90104167 -101.171875 113.56770833 -100.171875 115.234375 C-99.285 116.12125 -98.398125 117.008125 -97.484375 117.921875 C-95.171875 120.234375 -95.171875 120.234375 -95.171875 122.234375 C-94.60597656 122.49605469 -94.04007813 122.75773438 -93.45703125 123.02734375 C-90.97824627 124.33665069 -88.85898643 125.87541742 -86.609375 127.546875 C-71.95801979 137.82628288 -54.52210701 141.35272373 -36.8515625 141.375 C-35.0820182 141.39331069 -33.31248655 141.41287936 -31.54296875 141.43359375 C-28.7867244 141.46262757 -26.03131007 141.48437774 -23.27490234 141.48486328 C-20.59139466 141.48820157 -17.90974612 141.5227389 -15.2265625 141.5625 C-14.40767548 141.5554303 -13.58878845 141.5483606 -12.74508667 141.54107666 C-8.62678623 141.62835715 -5.9634774 141.98170591 -2.69189453 144.60058594 C1.01569461 148.47555898 1.88462493 152.00898323 2.203125 157.234375 C2.08918382 161.49089206 0.57125061 163.95786386 -2.171875 167.234375 C-5.4170205 170.22965323 -7.69066508 170.63615516 -12.0625 170.74609375 C-13.23659424 170.78162354 -14.41068848 170.81715332 -15.62036133 170.85375977 C-16.87486084 170.87623779 -18.12936035 170.89871582 -19.421875 170.921875 C-20.70408936 170.95531006 -21.98630371 170.98874512 -23.30737305 171.02319336 C-35.26089235 171.30732653 -47.21588357 171.34323331 -59.171875 171.234375 C-59.01460937 172.10964844 -58.85734375 172.98492187 -58.6953125 173.88671875 C-58.22708367 176.88128668 -57.96961053 179.77400325 -57.796875 182.796875 C-57.3042957 189.74065416 -56.28820447 196.571412 -55.25390625 203.45263672 C-54.5425819 208.28774313 -54.00358904 213.03369598 -53.796875 217.921875 C-52.31918598 242.77660428 -45.98025631 286.42225107 -26.734375 304.671875 C-23.53709128 307.9963716 -23.80135691 311.189967 -23.796875 315.671875 C-23.89274231 317.86084524 -24.00823111 320.04942605 -24.171875 322.234375 C-31.17565432 324.75456337 -38.11012846 326.3738982 -45.421875 327.734375 C-46.55850586 327.94868164 -47.69513672 328.16298828 -48.86621094 328.38378906 C-56.03286981 329.7121354 -63.20922389 330.93359654 -70.421875 331.984375 C-71.2046582 332.09974609 -71.98744141 332.21511719 -72.79394531 332.33398438 C-86.5533723 334.2362093 -100.29040132 334.42077994 -114.1550293 334.41967773 C-117.20440873 334.42185362 -120.25341903 334.44004453 -123.30273438 334.45898438 C-141.59678004 334.51296847 -159.45830057 332.97673943 -177.484375 329.859375 C-178.75893555 329.64313477 -180.03349609 329.42689453 -181.34667969 329.20410156 C-204.15519673 325.24271413 -204.15519673 325.24271413 -210.171875 322.234375 C-211.40427535 309.89325486 -211.40427535 309.89325486 -208.63671875 306.16796875 C-207.24637746 305.09909365 -205.83180386 304.06122856 -204.3984375 303.05078125 C-193.11522489 293.84605517 -189.41738942 275.54267093 -186.70556641 261.90991211 C-186.30069013 259.88015957 -185.88423881 257.85271169 -185.46240234 255.82641602 C-183.682836 247.18256776 -182.18340062 238.54880284 -181.046875 229.796875 C-180.96127319 229.14114502 -180.87567139 228.48541504 -180.78747559 227.80981445 C-178.4389404 209.37068408 -178.33803159 190.79807662 -178.171875 172.234375 C-178.90301514 172.21979248 -179.63415527 172.20520996 -180.38745117 172.19018555 C-183.71194871 172.1155459 -187.03545967 172.01893699 -190.359375 171.921875 C-191.50986328 171.89931641 -192.66035156 171.87675781 -193.84570312 171.85351562 C-194.95751953 171.81806641 -196.06933594 171.78261719 -197.21484375 171.74609375 C-198.23602295 171.71990967 -199.25720215 171.69372559 -200.30932617 171.66674805 C-203.57933637 171.17283009 -205.50477196 170.16023814 -208.171875 168.234375 C-211.13278157 163.35182045 -211.68931439 157.84851016 -210.71484375 152.30078125 C-209.75495256 148.64767016 -208.8928132 146.9553132 -206.171875 144.234375 C-202.93210915 142.76487908 -199.65484524 141.55922818 -196.30078125 140.375 C-187.43150404 137.14175537 -181.66039458 130.25589251 -177.40771484 122.03125 C-172.98638027 112.0251637 -171.55319788 101.26744648 -170.75976562 90.45346069 C-170.50123249 86.96100746 -170.19313775 83.47290211 -169.88671875 79.984375 C-169.82781464 79.30630295 -169.76891052 78.6282309 -169.70822144 77.92961121 C-167.26572492 50.5108552 -159.38516922 25.42962433 -138.234375 6.609375 C-135.171875 4.234375 -135.171875 4.234375 -133.171875 4.234375 C-133.171875 3.574375 -133.171875 2.914375 -133.171875 2.234375 C-94.95142254 -20.63690639 -37.19049903 -30.23400281 0 0 Z " fill="#00A99D" transform="translate(1385.171875,127.765625)"/>
<path d="M0 0 C15.14777546 7.28627174 29.82694881 15.56058158 44.41137695 23.90625 C47.58159549 25.7038775 50.76850943 27.39971769 54.05859375 28.96875 C55.03699219 29.43704224 55.03699219 29.43704224 56.03515625 29.91479492 C57.81745779 30.75585277 59.60959787 31.57597197 61.40234375 32.39453125 C64 34 64 34 65.03515625 35.9609375 C64.98841558 38.6718961 64.15344629 39.67398656 62.5 41.8125 C46.6620858 64.24340639 41.24495739 95.22663167 45.75 121.9375 C45.90726562 122.95779297 46.06453125 123.97808594 46.2265625 125.02929688 C47.66891449 133.72224136 50.00529774 141.7951565 55.25 149 C58 152.81188119 58 152.81188119 58 155 C58.66 155 59.32 155 60 155 C61.65625 156.71484375 61.65625 156.71484375 63.5 158.9375 C65.88926999 161.92045179 65.88926999 161.92045179 69 164 C69 164.66 69 165.32 69 166 C70.00353516 166.37125 70.00353516 166.37125 71.02734375 166.75 C73.30413344 167.70738857 75.39882046 168.71070333 77.56640625 169.875 C91.77569629 177.48635769 105.27541609 179.98039405 121.21875 176.24609375 C128.55088124 173.83897924 133.84540291 170.4751566 137.9375 163.875 C140.0039783 158.16029459 139.9802096 151.0465974 138.1328125 145.3046875 C136.60887287 142.2042586 134.5822635 140.26735331 132 138 C126.36316637 136.12105546 120.24162826 136.25279058 114.625 138.125 C110.9020297 140.7842645 108.06956443 143.86087115 106 148 C100.57696561 147.86442414 97.65845042 145.65386894 93.83203125 142.10546875 C87.74358571 135.10829999 86.62029825 126.51806031 86.73046875 117.57421875 C87.67099383 105.10203831 93.44015497 95.74792931 101.875 86.8125 C104 85 104 85 106 85 C106 84.34 106 83.68 106 83 C108.07571055 81.87923913 110.15900455 80.77912262 112.25 79.6875 C113.41015625 79.07261719 114.5703125 78.45773437 115.765625 77.82421875 C126.15621363 73.02005015 136.79530288 72.46249434 148.0625 72.5625 C148.78822205 72.56554138 149.51394409 72.56858276 150.26165771 72.57171631 C181.33599342 72.76408735 204.05454721 82.79373538 226 105 C235.28924637 115.18820569 240.76486185 129.58917111 243 143 C243.25342163 143.88848633 243.25342163 143.88848633 243.51196289 144.79492188 C244.53739499 149.42808981 244.18474367 154.27564649 244.1875 159 C244.19974609 160.07378906 244.21199219 161.14757812 244.22460938 162.25390625 C244.24273465 172.29530654 243.4537175 181.75545247 239 190.859375 C237.9888774 193.02380932 237.26454083 195.15586729 236.5625 197.4375 C234.93028027 202.56992427 232.50984179 207.24816514 230 212 C229.34 212 228.68 212 228 212 C228 212.99 228 213.98 228 215 C227.34 215 226.68 215 226 215 C225.731875 215.721875 225.46375 216.44375 225.1875 217.1875 C224.00098638 219.99766383 222.72514361 222.48416557 221 225 C220.34 225 219.68 225 219 225 C218.7525 225.556875 218.505 226.11375 218.25 226.6875 C216.77075182 229.42410913 215.06532561 231.67650869 213 234 C212.34 234 211.68 234 211 234 C210.7421875 234.59296875 210.484375 235.1859375 210.21875 235.796875 C208.90230105 238.17660965 207.57419218 239.50978792 205.5 241.25 C204.8915625 241.77078125 204.283125 242.2915625 203.65625 242.828125 C202 244 202 244 200 244 C200 244.66 200 245.32 200 246 C198.0093159 247.50604914 196.04310717 248.85800873 193.9375 250.1875 C193.30553711 250.58751221 192.67357422 250.98752441 192.02246094 251.3996582 C154.47762735 274.64059552 105.84024822 278.61718527 63.4375 268.75 C40.15177079 262.9984868 14.80826197 253.86807423 -3 237 C-3 236.34 -3 235.68 -3 235 C-3.85851562 234.62875 -3.85851562 234.62875 -4.734375 234.25 C-7.35010611 232.80683801 -9.14773456 231.11783778 -11.25 229 C-11.95640625 228.29875 -12.6628125 227.5975 -13.390625 226.875 C-15 225 -15 225 -15 223 C-15.66 223 -16.32 223 -17 223 C-18.44526736 221.26451831 -19.8087222 219.46024037 -21.125 217.625 C-21.84945312 216.62726563 -22.57390625 215.62953125 -23.3203125 214.6015625 C-25 212 -25 212 -25 210 C-25.66 210 -26.32 210 -27 210 C-28.9564708 206.59852158 -30.9066899 203.19382169 -32.84375 199.78125 C-34.09381814 197.5793756 -35.36057146 195.39451207 -36.65625 193.21875 C-52.44949077 166.00061165 -55.06919548 132.8770434 -52.125 102.1875 C-52.04668945 101.36967041 -51.96837891 100.55184082 -51.88769531 99.70922852 C-51.3722868 94.94959875 -50.40401617 90.59394091 -49 86 C-48.72974917 84.56616921 -48.47797953 83.12865634 -48.25 81.6875 C-44.34233276 62.0899567 -35.11017925 44.44417078 -24 28 C-23.38769531 27.04867187 -22.77539062 26.09734375 -22.14453125 25.1171875 C-19.79735447 21.7054442 -17.25297479 18.57947125 -14.5625 15.4375 C-14.09779297 14.88642578 -13.63308594 14.33535156 -13.15429688 13.76757812 C-10.2472208 10.34963513 -7.21175105 7.13863802 -4 4 C-3.236875 3.236875 -2.47375 2.47375 -1.6875 1.6875 C-1.130625 1.130625 -0.57375 0.57375 0 0 Z " fill="#00A99D" transform="translate(193,193)"/>
<path d="M0 0 C0.76100006 0.25112549 1.52200012 0.50225098 2.30606079 0.76098633 C15.51221475 5.14096164 28.3045399 10.10198921 40.5625 16.75 C42.19132632 17.61994133 43.82023497 18.48972854 45.44921875 19.359375 C46.26438965 19.79701172 47.07956055 20.23464844 47.91943359 20.68554688 C51.89295494 22.81255413 55.88455281 24.90497399 59.875 27 C64.70943906 29.54233441 69.54230191 32.08757874 74.37109375 34.640625 C78.35688998 36.74773324 82.349404 38.84168609 86.34472656 40.93066406 C88.05765704 41.83285688 89.76051277 42.75413986 91.4609375 43.6796875 C112.51345912 54.83933363 141.15100603 65.27264679 165.1875 58.75 C170.2523683 56.85288034 174.18984984 54.77772525 177.25 50.1875 C178.57027938 46.44670843 178.86777138 43.94217103 178.375 40 C174.3800272 32.45394027 168.61047297 29.04095616 160.64453125 26.43359375 C141.44104122 22.76476863 118.9094912 28.66122837 102.875 39.05859375 C99.40235504 40.36626162 97.79233872 39.31674382 94.375 38 C92.57218911 37.15521176 90.78815597 36.26937367 89.0234375 35.34765625 C88.01651855 34.82349121 87.00959961 34.29932617 85.97216797 33.75927734 C84.90885254 33.19934082 83.84553711 32.6394043 82.75 32.0625 C81.09895264 31.19939209 81.09895264 31.19939209 79.41455078 30.31884766 C71.4931774 26.16095547 63.63113271 21.90154736 55.83349609 17.51586914 C51.43232837 15.05594928 47.04819832 12.89654998 42.375 11 C42.375 10.01 42.375 9.02 42.375 8 C90.92994124 -13.31545311 153.87176261 -21.30882703 204.390625 -2.21875 C210.95768926 0.46308776 217.75692656 3.6071447 223.375 8 C223.375 8.66 223.375 9.32 223.375 10 C224.15875 10.2475 224.9425 10.495 225.75 10.75 C228.81441457 12.20924503 228.99225761 13.05014956 230.375 16 C230.97183594 16.27328125 231.56867188 16.5465625 232.18359375 16.828125 C239.01617726 20.48191297 242.71479285 29.00325162 244.875 36.0625 C247.74381586 47.84513657 246.65702841 57.85483726 240.9375 68.734375 C230.52379097 84.85559764 212.57664232 92.96826008 194.6796875 97.71484375 C158.05193102 105.58005165 118.29320238 95.36752237 84.70263672 80.99414062 C82.45620212 80.03468167 80.20008302 79.1020661 77.94140625 78.171875 C68.36650973 74.15090987 59.39895707 69.32468506 50.40844727 64.13671875 C42.16618381 59.39140039 33.77136258 55.00025555 25.29956055 50.68066406 C19.93866996 47.92701465 14.74621813 45.06220886 9.65356445 41.84082031 C-0.21405838 35.62263844 -10.3266988 32.64867768 -21.625 30 C-22.95059039 29.65782143 -24.27611734 29.31539694 -25.6015625 28.97265625 C-42.14135566 25.19461929 -63.94624193 23.47520863 -79.02734375 32.42578125 C-81.04625472 33.83865385 -82.83010962 35.31563243 -84.625 37 C-85.429375 37.7425 -86.23375 38.485 -87.0625 39.25 C-89.8174319 44.09868014 -90.15584502 49.12821544 -89.1484375 54.578125 C-87.93264751 59.19834367 -87.93264751 59.19834367 -84.51171875 62.25 C-83.57779297 62.62125 -83.57779297 62.62125 -82.625 63 C-82.625 63.66 -82.625 64.32 -82.625 65 C-81.635 65 -80.645 65 -79.625 65 C-79.625 65.66 -79.625 66.32 -79.625 67 C-76.17615114 67.87482995 -72.71514403 68.69227412 -69.25 69.5 C-68.14914063 69.7578125 -67.04828125 70.015625 -65.9140625 70.28125 C-62.82735192 70.95578058 -59.74569741 71.50973938 -56.625 72 C-55.96121271 77.15178197 -58.18856826 80.30004587 -60.8125 84.5 C-61.39354492 85.47646484 -61.39354492 85.47646484 -61.98632812 86.47265625 C-64.45726506 90.5160076 -67.13246688 93.75016834 -70.625 97 C-71.181875 97.598125 -71.73875 98.19625 -72.3125 98.8125 C-73.625 100 -73.625 100 -75.625 100 C-75.625 100.66 -75.625 101.32 -75.625 102 C-77.67832076 103.54606548 -79.70758444 104.94233354 -81.875 106.3125 C-82.51034668 106.71549316 -83.14569336 107.11848633 -83.80029297 107.53369141 C-97.61678621 116.09102558 -111.75579258 119.57388365 -127.9375 119.4375 C-129.21842529 119.42847656 -130.49935059 119.41945313 -131.8190918 119.41015625 C-147.73337978 119.11854112 -159.78754695 114.49149889 -173.625 107 C-173.625 106.34 -173.625 105.68 -173.625 105 C-174.4603125 104.62875 -174.4603125 104.62875 -175.3125 104.25 C-178.04910913 102.77075182 -180.30150869 101.06532561 -182.625 99 C-182.625 98.34 -182.625 97.68 -182.625 97 C-183.285 97 -183.945 97 -184.625 97 C-198.89866305 79.41686817 -201.68763737 61.28933049 -199.625 39 C-198.07861764 28.97802579 -193.1334957 19.71536908 -186.625 12 C-185.965 12 -185.305 12 -184.625 12 C-184.3878125 11.41992188 -184.150625 10.83984375 -183.90625 10.2421875 C-176.67993297 -2.4038673 -156.91515288 -9.44927609 -143.515625 -13.1953125 C-96.38796131 -25.45787 -45.19312125 -14.97550919 0 0 Z " fill="#00A99D" transform="translate(199.625,152)"/>
<path d="M0 0 C1.59287479 3.18574959 0.40032523 6.31735661 -0.25 9.6875 C-0.43369141 10.73067383 -0.43369141 10.73067383 -0.62109375 11.79492188 C-1.51568356 16.53801932 -3.0829718 20.55288383 -5 25 C-5.92145659 28.11671244 -6.65362283 31.26919229 -7.375 34.4375 C-7.58705078 35.36304688 -7.79910156 36.28859375 -8.01757812 37.2421875 C-8.46262748 39.19830414 -8.90430661 41.15519033 -9.34277344 43.11279297 C-9.95280482 45.79267082 -10.6007996 48.46024118 -11.2578125 51.12890625 C-14.54189242 65.0170498 -16.22828387 79.02301215 -17.8125 93.1875 C-17.97927246 94.65775635 -17.97927246 94.65775635 -18.14941406 96.15771484 C-20.06946176 113.27479682 -20.19142765 129.07063143 -17.8125 146.125 C-17.7005127 146.94259796 -17.58852539 147.76019592 -17.47314453 148.60256958 C-15.80850588 160.65983657 -13.81859988 172.4120065 -10 184 C-9.79906738 184.63824707 -9.59813477 185.27649414 -9.39111328 185.93408203 C-6.15482749 196.15406916 -2.00673597 205.78520611 5 214 C5.44601562 214.78890625 5.89203125 215.5778125 6.3515625 216.390625 C8.04666252 219.07386389 9.84845412 220.75324253 12.1875 222.875 C15.48431103 226.44839981 16.42607192 228.89293522 16.33508301 233.7824707 C16.30313843 234.4549585 16.27119385 235.12744629 16.23828125 235.8203125 C16.22108032 236.51261963 16.20387939 237.20492676 16.18615723 237.91821289 C16.14156568 239.61269148 16.07319499 241.30651585 16 243 C-14.61296083 250.43157743 -44.90867833 255.22717027 -76.5 255.25 C-77.34871674 255.25067474 -78.19743347 255.25134949 -79.0718689 255.25204468 C-107.47694712 255.21651384 -144.04524608 254.97737696 -170 242 C-171.37838823 229.730643 -171.37838823 229.730643 -168.2421875 225.79296875 C-166.67992966 224.66231774 -165.07806406 223.58482161 -163.4453125 222.55859375 C-152.71324007 215.71818337 -146.5113673 201.72121896 -143 190 C-142.00735021 185.51572194 -141.27195322 180.99562664 -140.578125 176.45703125 C-140 173 -140 173 -139 171 C-138.76053943 168.24472526 -138.57482753 165.51067892 -138.4375 162.75 C-138.3748999 161.53642822 -138.3748999 161.53642822 -138.31103516 160.29833984 C-136.915862 139.64246387 -136.915862 139.64246387 -142 120 C-142.43025079 117.9480347 -142.86033204 115.8960335 -143.2890625 113.84375 C-147.04183875 98.83264502 -152.59898915 85.78071358 -165 76 C-169.75896168 72.13334363 -169.75896168 72.13334363 -170.40625 69.08984375 C-170.6109204 64.52739952 -169.79910945 61.72195995 -167 58 C-154.42522974 51.19047908 -136.41852611 51.06185466 -122.515625 49.0703125 C-94.77583873 45.04777042 -64.949667 40.18758365 -41.07421875 24.5859375 C-35.66509758 21.06444032 -29.96269907 18.04986638 -24.3125 14.9375 C-15.94711946 10.29931224 -7.77000739 5.59718653 0 0 Z " fill="#00A99D" transform="translate(1576,209)"/>
<path d="M0 0 C0.71800781 0.32677734 1.43601562 0.65355469 2.17578125 0.99023438 C5.59693101 2.55154443 9.00537643 4.13916462 12.41015625 5.73583984 C19.90097598 9.23058152 27.45776385 12.47572773 35.125 15.5625 C36.28314209 16.03139648 37.44128418 16.50029297 38.63452148 16.98339844 C42.21307024 18.43046452 45.79369034 19.87228182 49.375 21.3125 C50.49213379 21.76238281 51.60926758 22.21226562 52.76025391 22.67578125 C59.04070889 25.20324733 65.32634683 27.71726119 71.61816406 30.21630859 C73.34236297 30.90189601 75.06579969 31.58940696 76.78808594 32.27978516 C89.20926899 37.25856866 101.80796036 41.65472661 114.47167969 45.97460938 C117.96099142 47.16766988 121.44431921 48.37751357 124.92687988 49.59011841 C147.2587153 57.36370478 169.68598646 64.65219129 192.375 71.3125 C193.20483398 71.55701904 194.03466797 71.80153809 194.88964844 72.0534668 C245.8106466 87.04644205 297.35609229 99.7525017 349.375 110.3125 C350.34943054 110.51061279 351.32386108 110.70872559 352.32781982 110.9128418 C425.73040697 125.79151696 499.83001669 135.94235839 574.4453125 142.28125 C575.17402557 142.34372925 575.90273865 142.4062085 576.65353394 142.47058105 C614.92938294 145.62975419 653.25568878 146.65505566 691.64892578 146.57324219 C697.05523073 146.56181991 702.46133926 146.56866215 707.86763763 146.58011913 C742.11363444 146.64165903 776.27036391 145.80423059 810.375 142.5 C811.26603424 142.41601959 812.15706848 142.33203918 813.07510376 142.24551392 C857.28829269 138.06962795 901.2099329 131.91008874 944.375 121.3125 C945.55755371 121.02375 946.74010742 120.735 947.95849609 120.4375 C963.30276947 116.65889097 978.39352828 112.33588444 993.375 107.3125 C994.1892041 107.04501953 995.0034082 106.77753906 995.84228516 106.50195312 C1022.10040612 97.86017362 1046.82158622 86.36636891 1070.7487793 72.61572266 C1071.69406494 72.07351074 1072.63935059 71.53129883 1073.61328125 70.97265625 C1074.45930908 70.48418213 1075.30533691 69.99570801 1076.17700195 69.49243164 C1078.375 68.3125 1078.375 68.3125 1081.375 67.3125 C1081.375 66.6525 1081.375 65.9925 1081.375 65.3125 C1083.03638941 64.13888506 1084.75679483 63.04824737 1086.5 62 C1089.83030335 59.95124195 1092.99001619 57.94761679 1095.9375 55.375 C1098.375 53.3125 1098.375 53.3125 1100.375 53.3125 C1100.375 52.6525 1100.375 51.9925 1100.375 51.3125 C1101.80859375 49.90234375 1101.80859375 49.90234375 1103.8125 48.25 C1109.44091566 43.46434177 1115.25924507 38.4861324 1119.375 32.3125 C1120.035 32.3125 1120.695 32.3125 1121.375 32.3125 C1121.375 31.6525 1121.375 30.9925 1121.375 30.3125 C1122.035 30.3125 1122.695 30.3125 1123.375 30.3125 C1123.375 29.3225 1123.375 28.3325 1123.375 27.3125 C1124.035 27.3125 1124.695 27.3125 1125.375 27.3125 C1125.643125 26.77625 1125.91125 26.24 1126.1875 25.6875 C1127.58333333 22.89583333 1128.97916667 20.10416667 1130.375 17.3125 C1131.035 17.3125 1131.695 17.3125 1132.375 17.3125 C1132.6225 16.6525 1132.87 15.9925 1133.125 15.3125 C1137.23214286 5.45535714 1137.23214286 5.45535714 1139.375 3.3125 C1141.72487262 3.07722227 1144.08056039 2.89863583 1146.4375 2.75 C1147.72785156 2.66621094 1149.01820312 2.58242188 1150.34765625 2.49609375 C1151.34667969 2.43550781 1152.34570312 2.37492187 1153.375 2.3125 C1152.75665347 5.11970783 1151.89912368 7.50253968 1150.59765625 10.0625 C1150.07461914 11.09890625 1150.07461914 11.09890625 1149.54101562 12.15625 C1149.17685547 12.8678125 1148.81269531 13.579375 1148.4375 14.3125 C1148.07720703 15.0240625 1147.71691406 15.735625 1147.34570312 16.46875 C1146.67249506 17.79780901 1145.99763947 19.12603579 1145.32055664 20.453125 C1144.32960346 22.40176932 1143.35072025 24.35619037 1142.375 26.3125 C1141.715 26.3125 1141.055 26.3125 1140.375 26.3125 C1140.15457031 26.993125 1139.93414063 27.67375 1139.70703125 28.375 C1137.99334532 32.1541549 1135.65228177 35.09332903 1133.0625 38.3125 C1132.58876953 38.91578125 1132.11503906 39.5190625 1131.62695312 40.140625 C1128.74453817 43.76828815 1125.71047402 47.08554311 1122.375 50.3125 C1121.653125 51.075625 1120.93125 51.83875 1120.1875 52.625 C1118.375 54.3125 1118.375 54.3125 1116.375 54.3125 C1116.375 54.9725 1116.375 55.6325 1116.375 56.3125 C1114.765625 57.93359375 1114.765625 57.93359375 1112.625 59.75 C1111.58085937 60.64525391 1111.58085937 60.64525391 1110.515625 61.55859375 C1104.71353007 66.3125 1104.71353007 66.3125 1102.375 66.3125 C1102.375 66.9725 1102.375 67.6325 1102.375 68.3125 C1100.9855957 69.50170898 1100.9855957 69.50170898 1099.05078125 70.80859375 C1098.35146484 71.28490234 1097.65214844 71.76121094 1096.93164062 72.25195312 C1096.19107422 72.74630859 1095.45050781 73.24066406 1094.6875 73.75 C1093.96626953 74.24048828 1093.24503906 74.73097656 1092.50195312 75.23632812 C1082.04526189 82.3125 1082.04526189 82.3125 1079.375 82.3125 C1079.375 82.9725 1079.375 83.6325 1079.375 84.3125 C1076.33601897 85.99247603 1073.28611348 87.65146999 1070.23144531 89.30273438 C1068.96496387 89.99160434 1067.70139771 90.68585453 1066.44042969 91.38476562 C995.8411851 130.48276908 913.1074669 145.62863873 700.57855225 160.6350708 C696.11782567 160.62157452 691.65719769 160.62692975 687.19645977 160.63193226 C659.20325571 160.6556445 631.31707787 160.02855266 603.375 158.3125 C602.10644165 158.2346225 600.8378833 158.156745 599.53088379 158.07650757 C592.28583673 157.61702032 585.04867991 157.08156943 577.8125 156.5 C576.74556915 156.41568726 575.67863831 156.33137451 574.57937622 156.24450684 C458.29384771 147.02009963 343.15135114 127.02864708 185.45611572 83.92785645 C183.30914368 83.29302722 181.16119506 82.66157584 179.01318359 82.03027344 C157.88931986 75.80704725 137.07546361 68.88124576 116.34757996 61.44821167 C111.68453946 59.77615632 107.01090725 58.13900047 102.32592773 56.52929688 C59.88723556 41.91767942 18.46669125 24.50530061 -22.14672852 5.43481445 C-24.61333864 4.31778098 -27.10343718 3.29836357 -29.625 2.3125 C-29.625 1.6525 -29.625 0.9925 -29.625 0.3125 C-27.44377494 -0.56180519 -25.25750158 -1.41158501 -23.0625 -2.25 C-21.84433594 -2.72566406 -20.62617188 -3.20132812 -19.37109375 -3.69140625 C-12.06251407 -5.63477207 -6.53708108 -3.05253265 0 0 Z " fill="#00A99D" transform="translate(382.625,471.6875)"/>
<path d="M0 0 C1.36556075 -0.00274932 2.73112129 -0.00560669 4.09668159 -0.00856781 C10.54773799 -0.02219844 16.99878217 -0.0318769 23.44985193 -0.0357697 C30.00463819 -0.03975358 36.55927694 -0.05182048 43.11401367 -0.078125 C140.45956831 -0.4601355 237.18191277 8.81881276 468.53515625 54.203125 C469.49576965 54.44268921 470.45638306 54.68225342 471.44610596 54.92907715 C555.25273165 75.87263376 638.50720812 102.0898987 717.53515625 137.203125 C717.53515625 137.863125 717.53515625 138.523125 717.53515625 139.203125 C716.87515625 139.203125 716.21515625 139.203125 715.53515625 139.203125 C715.13296875 140.316875 715.13296875 140.316875 714.72265625 141.453125 C713.59286204 144.06949054 712.32622423 146.00499611 710.53515625 148.203125 C704.11223954 146.14712351 697.85003698 143.80500954 691.59765625 141.28125 C689.65272524 140.50250519 687.7076507 139.72411877 685.76245117 138.94604492 C684.24124161 138.33652481 684.24124161 138.33652481 682.68930054 137.71469116 C593.34243761 101.97853939 500.84862425 74.16050678 100.53515625 14.203125 C98.70549316 14.11853027 98.70549316 14.11853027 96.83886719 14.03222656 C8.2070286 9.99590732 -81.80899339 13.8444471 -318.08984375 77.32421875 C-320.91002322 78.89424922 -323.7364347 80.3246103 -326.65234375 81.703125 C-338.67516177 87.65340104 -350.86874061 95.94687505 -361.2109375 104.46484375 C-363.46484375 106.203125 -363.46484375 106.203125 -365.46484375 106.203125 C-365.46484375 106.863125 -365.46484375 107.523125 -365.46484375 108.203125 C-367.07421875 109.7890625 -367.07421875 109.7890625 -369.21484375 111.578125 C-371.53388077 113.54070227 -373.71703659 115.4619545 -375.83984375 117.640625 C-377.46484375 119.203125 -377.46484375 119.203125 -379.46484375 119.203125 C-380.12484375 120.523125 -380.78484375 121.843125 -381.46484375 123.203125 C-387.07484375 123.203125 -392.68484375 123.203125 -398.46484375 123.203125 C-396.46484468 119.20312685 -394.0847382 116.31733979 -391.08984375 113.078125 C-390.60773438 112.54058594 -390.125625 112.00304687 -389.62890625 111.44921875 C-387.12726348 108.72324389 -384.95271847 106.54207217 -381.46484375 105.203125 C-381.46484375 104.543125 -381.46484375 103.883125 -381.46484375 103.203125 C-379.85546875 101.58203125 -379.85546875 101.58203125 -377.71484375 99.765625 C-377.01875 99.16878906 -376.32265625 98.57195312 -375.60546875 97.95703125 C-369.80337382 93.203125 -369.80337382 93.203125 -367.46484375 93.203125 C-367.46484375 92.543125 -367.46484375 91.883125 -367.46484375 91.203125 C-364.33741022 88.60173444 -360.85292703 86.44901354 -357.46484375 84.203125 C-356.40265625 83.49542969 -355.34046875 82.78773437 -354.24609375 82.05859375 C-345.56006859 76.33865164 -336.62323812 71.1279646 -327.46484375 66.203125 C-326.86575195 65.88021484 -326.26666016 65.55730469 -325.64941406 65.22460938 C-248.68949828 24.21893996 -157.09854542 9.73249798 -47.46484375 1.203125 C-46.44504913 1.13394001 -46.44504913 1.13394001 -45.4046526 1.06335735 C-30.27584249 0.06162753 -15.15686141 0.02175909 0 0 Z " fill="#00A99D" transform="translate(508.46484375,-0.203125)"/>
<path d="M0 0 C0 0.66 0 1.32 0 2 C0.639375 2.268125 1.27875 2.53625 1.9375 2.8125 C4 4 4 4 5 7 C5.66 7 6.32 7 7 7 C15.94786745 18.36940253 17.99596585 31.93389766 17 46 C13.43998976 68.60736429 1.65963657 89.3500258 -16 104 C-16.66 104 -17.32 104 -18 104 C-18 104.66 -18 105.32 -18 106 C-20.24347991 107.54106785 -22.46643469 108.94328314 -24.8125 110.3125 C-25.50029541 110.71621826 -26.18809082 111.11993652 -26.89672852 111.53588867 C-44.14123813 121.52737723 -62.43468366 127.24934788 -82.375 122.8125 C-89.40424619 120.79183114 -96.39592589 117.78893606 -102 113 C-102 112.34 -102 111.68 -102 111 C-102.99 110.67 -103.98 110.34 -105 110 C-114.62699559 100.39534082 -117.12279667 88.37403767 -117.1875 75.1875 C-117.17377197 68.89066827 -116.62143888 63.08540025 -115 57 C-114.77054688 56.05125 -114.54109375 55.1025 -114.3046875 54.125 C-113.07502885 49.25814051 -111.857403 45.17620438 -109 41 C-108.17853706 39.5257921 -107.36700228 38.04603172 -106.5625 36.5625 C-104.53081195 32.9030137 -102.49939749 29.3612587 -100 26 C-99.34 26 -98.68 26 -98 26 C-97.731875 25.4225 -97.46375 24.845 -97.1875 24.25 C-95.97070811 21.94449957 -94.69666121 19.97943808 -93 18 C-92.34 18 -91.68 18 -91 18 C-90.67 17.01 -90.34 16.02 -90 15 C-67.23874497 -9.00926118 -28.58757712 -19.05838475 0 0 Z " fill="#00A99D" transform="translate(1536,113)"/>
<path d="M0 0 C2 1 2 1 2 1 Z " fill="#00A99D" transform="translate(253,219)"/>
</svg>
